<svg width="512" height="512" viewBox="0 0 512 512" fill="none" xmlns="http://www.w3.org/2000/svg">
<path d="M510.197 453.709V58.2911C510.197 27.2225 484.777 1.80282 453.709 1.80282H58.2911C27.2225 1.80282 1.80282 27.2225 1.80282 58.2911V453.709C1.80282 484.777 27.2225 510.197 58.2911 510.197H453.709C484.777 510.197 510.197 484.777 510.197 453.709ZM157.146 298.366L227.756 383.381L326.61 256L453.709 425.465H58.2911L157.146 298.366Z" fill="#008F62"/>
<path d="M158.819 194.54C147.986 194.54 138.651 192.47 130.813 188.331C123.019 184.148 117.008 178.159 112.781 170.365C108.598 162.527 106.506 153.148 106.506 142.227C106.506 131.747 108.62 122.588 112.847 114.75C117.074 106.912 123.041 100.813 130.747 96.4536C138.453 92.0943 147.546 89.9146 158.026 89.9146C165.688 89.9146 172.623 91.1035 178.832 93.4813C185.041 95.8592 190.347 99.3158 194.75 103.851C199.154 108.343 202.544 113.803 204.922 120.232C207.3 126.661 208.489 133.905 208.489 141.963V150.417H117.867V130.338H174.935C174.891 127.432 174.142 124.878 172.689 122.676C171.28 120.43 169.365 118.691 166.943 117.458C164.565 116.181 161.857 115.542 158.819 115.542C155.868 115.542 153.16 116.181 150.694 117.458C148.228 118.691 146.247 120.408 144.75 122.61C143.297 124.812 142.526 127.388 142.438 130.338V152.003C142.438 155.261 143.12 158.167 144.485 160.721C145.851 163.275 147.81 165.279 150.364 166.732C152.918 168.185 156 168.912 159.611 168.912C162.121 168.912 164.411 168.559 166.48 167.855C168.594 167.15 170.4 166.138 171.897 164.817C173.394 163.452 174.495 161.822 175.199 159.929H208.489C207.344 166.974 204.636 173.095 200.365 178.291C196.093 183.443 190.435 187.45 183.39 190.312C176.388 193.13 168.198 194.54 158.819 194.54Z" fill="white"/>
</svg>
