<svg width="800" height="800" viewBox="0 0 800 800" fill="none" xmlns="http://www.w3.org/2000/svg">
<path d="M539.775 29.125C476.25 90.55 549.95 187.8 607.8 117.9C667.25 229.2 618.25 322.975 482.375 240.725C490.375 224.025 494.975 204.675 494.975 184C494.975 121.225 452.65 70.325 400.425 70.325C348.2 70.325 305.875 121.225 305.875 184C305.875 204.2 310.275 223.175 317.95 239.625C180.725 323.775 131.025 229.65 190.75 117.875C248.6 187.775 322.325 90.525 258.775 29.1C24.3001 92.425 -65.8249 309.7 144.625 382.75H142.925C143.925 382.875 144.9 383.05 145.875 383.175C159.925 387.975 175.3 392.15 192.05 395.6C270.45 426.45 327.15 501.1 331.75 574.025C279.475 610.05 238.975 672.05 238.975 672.05L279.975 732.4L215.675 769.025H343.525C280.475 705.95 325.225 635 399.9 635C475.625 635 515.225 710.075 456.275 769.025H582.825L519.85 732.4L560.85 672.05C560.85 672.05 519.7 609.05 466.825 573.175C471.825 500.525 528.375 426.325 606.475 395.6C623.225 392.15 638.6 387.975 652.65 383.175C653.625 383.025 654.625 382.875 655.6 382.75H653.9C864.35 309.7 774.225 92.425 539.75 29.1L539.775 29.125Z" fill="#E97350"/>
</svg>
