<svg width="138" height="138" viewBox="0 0 138 138" fill="none" xmlns="http://www.w3.org/2000/svg">
<g clip-path="url(#clip0_26_3)">
<path d="M69 0C30.8919 0 0 30.8919 0 69C0 107.108 30.8919 138 69 138C107.108 138 138 107.108 138 69C138 30.8919 107.108 0 69 0ZM75.3047 108.741H62.4532V96.4167H75.3047V108.741ZM75.3047 83.2567V87.3301H62.4532V82.312C62.4532 67.1675 79.6866 64.7652 79.6866 54.0027C79.6866 49.0938 75.2999 45.3338 69.5555 45.3338C63.6021 45.3338 58.3799 49.7204 58.3799 49.7204L51.064 40.629C51.064 40.629 58.2754 33.109 70.7043 33.109C82.5114 33.109 93.4733 40.4201 93.4733 52.7446C93.4781 69.9875 75.3047 71.9767 75.3047 83.2567Z" fill="#00C24E"/>
</g>
<defs>
<clipPath id="clip0_26_3">
<rect width="138" height="138" fill="white"/>
</clipPath>
</defs>
</svg>
